<?xml version="1.0" encoding="iso-8859-1"?>
<!-- Generator: Adobe Illustrator 16.0.0, SVG Export Plug-In . SVG Version: 6.00 Build 0)  -->
<!DOCTYPE svg PUBLIC "-//W3C//DTD SVG 1.1//EN" "http://www.w3.org/Graphics/SVG/1.1/DTD/svg11.dtd">
<svg version="1.1" id="Capa_1" xmlns="http://www.w3.org/2000/svg" xmlns:xlink="http://www.w3.org/1999/xlink" x="0px" y="0px"
	 width="572.026px" height="572.026px" viewBox="0 0 572.026 572.026" style="enable-background:new 0 0 572.026 572.026;"
	 xml:space="preserve">
<g>
	<path d="M566.263,207.137c-61.2-9.6-177.9-11.5-262,11.5c-5.7,0-30.6,0-36.3,0c-84.1-23-200.8-21-262-11.5
		c-7.6,1.9-7.6,34.4-1.9,36.3c11.5,5.7,17.2,17.2,17.2,17.2s3.8,11.5,13.4,53.5c9.5,42.2,34.4,49.9,34.4,49.9s30.6,7.6,65,7.6
		s55.5-1.899,78.4-13.399s32.5-42.101,32.5-42.101s11.5-26.8,19.1-51.6c1.9-7.7,40.2-7.7,42.1,0c7.601,24.9,19.101,51.6,19.101,51.6
		s9.6,30.601,32.5,42.101c23,11.5,44,13.399,78.399,13.399c34.4,0,65-7.6,65-7.6s24.9-5.7,34.4-49.7c9.6-44,13.4-53.5,13.4-53.5
		s5.699-11.5,17.199-17.2C573.963,241.637,573.963,207.137,566.263,207.137z"/>
</g>
<g>
</g>
<g>
</g>
<g>
</g>
<g>
</g>
<g>
</g>
<g>
</g>
<g>
</g>
<g>
</g>
<g>
</g>
<g>
</g>
<g>
</g>
<g>
</g>
<g>
</g>
<g>
</g>
<g>
</g>
</svg>
